<svg xmlns="http://www.w3.org/2000/svg" xmlns:xlink="http://www.w3.org/1999/xlink" version="1.0" x="0px" y="0px" viewBox="0 0 165 206.25" style="enable-background:new 0 0 165 165;" xml:space="preserve"><g><path d="M82.5,12.6C44,12.6,12.6,44,12.6,82.5s31.3,69.9,69.9,69.9s69.9-31.3,69.9-69.9S121,12.6,82.5,12.6z M82.5,146.4   c-35.2,0-63.9-28.7-63.9-63.9s28.7-63.9,63.9-63.9s63.9,28.7,63.9,63.9S117.7,146.4,82.5,146.4z"/><path d="M124.3,52.2h-13c0-1.5,0-2.9,0-4.4c0-3.1,0-6.2,0-9.3v-1.2c0-1.7-1.3-3-3-3H56.5c-1.6,0-2.9,1.2-3,2.8l0,0.2   c0,0.2,0,0.4,0,0.7v6.4c0,2.6,0,5.2,0,7.8H40.3c-0.4,0-0.8,0.2-1.1,0.5c-0.3,0.3-0.4,0.7-0.4,1.1c0.3,6.2,1,10.8,2.3,15   c1.4,4.4,3.5,7.9,6.5,10.8c2.4,2.3,5.3,3.8,8.9,4.7c1.1,2.3,2.5,4.5,4.3,6.5c0.9,1.1,1.8,2.1,2.8,3.2c1.4,1.6,2.8,3.2,4.2,4.8   c3.2,3.8,4.7,7.5,4.8,11.5c0,0.2,0,0.3,0,0.4c-0.1,0-0.2,0.1-0.5,0.2l-1.2,0.4c-2.9,1-5.8,1.9-8.7,3.1c-4.1,1.7-7.6,4-10.3,6.9   c-1.1,1.2-2.4,2.8-3.1,5.1c-0.3,0.9-0.1,1.9,0.5,2.6c0.6,0.8,1.5,1.2,2.4,1.2h61.5c1,0,1.9-0.5,2.4-1.3c0.6-0.8,0.7-1.8,0.4-2.7   l-0.1-0.2c-0.1-0.2-0.2-0.4-0.2-0.6c-1.7-3.7-4.6-6.1-7-7.7c-5.2-3.6-11.1-5.5-16.1-6.9c-0.2,0-0.3-0.1-0.4-0.1c0-0.1,0-0.2,0-0.4   c0.1-3.3,1-6.2,2.8-8.7c2.3-3,4.8-6.2,7.7-9.3c2.2-2.5,4-5.1,5.4-8c6.5-1.6,11.1-5.6,14-12.1c1.5-3.3,2.4-6.9,2.9-10.9   c0.2-1.7,0.4-3.4,0.5-5.1c0.1-0.8,0.1-1.5,0.2-2.3c0-0.4-0.1-0.8-0.4-1.2C125.1,52.4,124.7,52.2,124.3,52.2z M49.7,77.5   c-2.6-2.5-4.5-5.6-5.7-9.5c-1.1-3.6-1.8-7.6-2.1-12.7h11.6c0,5,0,10,0,15c0,3.7,0.6,7.2,1.6,10.5C53,80,51.2,78.9,49.7,77.5z    M98.3,88.2c-2.9,3.2-5.6,6.5-8,9.7c-2.6,3.5-3.9,7.5-4,12.1c-0.1,3.5,1.4,5.5,4.8,6.5c4.6,1.3,9.8,3,14.3,6.1c0.8,0.5,1.5,1,2,1.6   h-50c1.9-1.7,4.3-3.2,7-4.3c2.7-1.1,5.6-2.1,8.3-3l1.2-0.4c3.2-1.1,4.6-3.1,4.6-6.4c-0.1-5.4-2.1-10.3-6.2-15.2   c-1.4-1.7-2.9-3.3-4.3-4.9c-0.9-1-1.8-2.1-2.7-3.1c-4-4.6-5.9-10.1-5.9-16.7c0-8.6,0-17.2,0-25.8v-4.1h45.8c0,2.5,0,5,0,7.5   c0,7.1,0,14.4,0,21.6C105.4,76.8,103,82.9,98.3,88.2z M122.6,55.9c-0.2,1.7-0.3,3.3-0.5,5c-0.5,3.7-1.4,7-2.7,10.1   c-2.1,4.9-5.3,8.1-9.8,9.7c1.2-3.5,1.8-7.3,1.7-11.3c0-4.7,0-9.5,0-14.2h11.4C122.6,55.4,122.6,55.6,122.6,55.9z"/><path d="M77,71.5l-5.6-4l5.6-4c0.4-0.3,0.5-0.8,0.3-1.2l-0.7-1.6c-0.1-0.3-0.4-0.5-0.7-0.5c-0.3-0.1-0.6,0-0.8,0.2l-7.7,5.7   c-0.3,0.2-0.4,0.5-0.4,0.8v1.5c0,0.3,0.2,0.6,0.4,0.8l7.7,5.6c0.2,0.1,0.4,0.2,0.6,0.2c0.1,0,0.2,0,0.2,0c0.3-0.1,0.5-0.3,0.7-0.5   l0.8-1.5C77.6,72.3,77.4,71.8,77,71.5z"/><path d="M87.2,51.4C87,51.1,86.7,51,86.4,51h-1.6c-0.5,0-0.9,0.3-1,0.8l-6.5,28.8c-0.1,0.3,0,0.6,0.2,0.8c0.2,0.2,0.5,0.4,0.8,0.4   h1.6c0.5,0,0.9-0.3,1-0.8l6.5-28.8C87.5,51.9,87.4,51.6,87.2,51.4z"/><path d="M97.3,65.9l-7.7-5.7C89.4,60,89.1,60,88.8,60c-0.3,0.1-0.5,0.3-0.7,0.5l-0.7,1.6c-0.2,0.4-0.1,0.9,0.3,1.2l5.6,4l-5.6,4   c-0.4,0.3-0.5,0.8-0.3,1.3l0.8,1.5c0.1,0.3,0.4,0.5,0.7,0.5c0.1,0,0.2,0,0.2,0c0.2,0,0.4-0.1,0.6-0.2l7.7-5.6   c0.3-0.2,0.4-0.5,0.4-0.8v-1.5C97.8,66.4,97.6,66.1,97.3,65.9z"/></g><text x="0" y="180" fill="#000000" font-size="5px" font-weight="bold" font-family="'Helvetica Neue', Helvetica, Arial-Unicode, Arial, Sans-serif">Created by coloripop</text><text x="0" y="185" fill="#000000" font-size="5px" font-weight="bold" font-family="'Helvetica Neue', Helvetica, Arial-Unicode, Arial, Sans-serif">from the Noun Project</text></svg>